<svg width="156" height="53" viewBox="0 0 156 53" fill="none" xmlns="http://www.w3.org/2000/svg">
<path d="M41.9486 32.2777L17.4258 15.1689L12.0327 45.6445C11.7328 47.3379 13.555 48.6103 15.0509 47.7495L41.9486 32.2758V32.2777Z" fill="url(#paint0_linear_432_751)"/>
<path d="M16.0713 43.098C17.3521 43.9907 19.1027 44.7124 20.2628 44.7538L23.9054 42.6582C22.9905 42.692 20.5816 41.8011 18.167 40.1153C15.7525 38.4313 14.0887 36.4804 13.8077 35.6121L13.0776 39.7394C13.5134 40.8125 14.7923 42.2033 16.0713 43.098Z" fill="url(#paint1_linear_432_751)"/>
<path d="M24.0714 31.7158C20.7061 29.3683 16.9523 25.6376 15.9789 23.3484L14.8037 29.9923C15.8827 31.744 18.2727 34.3226 20.9344 36.1795C23.5961 38.0364 26.8481 39.3915 28.8666 39.8031L34.7313 36.4295C32.2394 36.3017 27.4367 34.0632 24.0714 31.7158Z" fill="url(#paint2_linear_432_751)"/>
<path d="M15.0492 47.7515L41.9468 32.2779L39.3493 30.4661L14.0098 48.0259C14.3531 48.0297 14.7096 47.9451 15.0492 47.7515Z" fill="url(#paint3_linear_432_751)"/>
<path d="M42.529 31.7052C44.3575 29.1033 40.2969 23.1271 33.4595 18.357C26.622 13.5869 19.5969 11.8292 17.7684 14.431C15.9398 17.0329 20.0004 23.009 26.8378 27.7792C33.6753 32.5493 40.7004 34.307 42.529 31.7052Z" fill="url(#paint4_linear_432_751)"/>
<path d="M41.7415 30.6403C43.282 28.4482 39.4495 23.1262 33.1812 18.7532C26.913 14.3802 20.5828 12.6122 19.0423 14.8042C17.5018 16.9962 21.3343 22.3182 27.6026 26.6912C33.8708 31.0642 40.201 32.8323 41.7415 30.6403Z" fill="url(#paint5_linear_432_751)"/>
<path d="M29.8684 0.026123C29.0629 0.0430382 28.4329 0.717766 28.4706 1.51842C28.8158 8.73744 27.3671 16.4639 24.0811 23.9179C24.6583 24.4329 25.2732 24.9459 25.9221 25.4515C31.5529 14.0714 31.5077 3.93541 31.3285 1.40377C31.2681 0.559891 30.6494 0.0110873 29.8665 0.0280025H29.8684V0.026123Z" fill="url(#paint6_linear_432_751)"/>
<path d="M20.7515 6.79611C20.0837 7.03856 19.7328 7.77343 19.9743 8.43876C21.2891 12.0812 21.5928 16.2667 20.8571 20.5425C21.4098 21.2454 22.0587 21.9709 22.7925 22.702C24.5808 16.0769 23.5037 10.5663 22.4228 7.58173C22.1776 6.90324 21.4324 6.54802 20.7534 6.79423L20.7515 6.79611Z" fill="url(#paint7_linear_432_751)"/>
<path d="M36.3596 14.5317C36.7104 13.763 36.3388 12.8571 35.5465 12.5545C34.7939 12.2669 33.9488 12.6372 33.6545 13.3852C31.9794 17.6365 29.7309 21.9706 26.9277 26.2107C27.1503 26.3723 27.3748 26.5339 27.6031 26.6918C27.9539 26.9361 28.3029 27.1711 28.6538 27.4004C31.77 23.2392 34.3694 18.8939 36.3614 14.5335H36.3596V14.5317Z" fill="url(#paint8_linear_432_751)"/>
<path d="M49.5204 21.3787C49.5544 20.704 49.0262 20.1495 48.349 20.1101C43.784 19.8413 35.8367 21.7226 30.0645 28.2745C30.6794 28.6391 31.2906 28.9755 31.8905 29.2837C36.497 24.6415 42.5352 22.2414 48.2603 22.5252C48.9243 22.5571 49.4865 22.0422 49.5204 21.3806V21.3787Z" fill="url(#paint9_linear_432_751)"/>
<path d="M46.5022 29.4342C46.7192 28.7538 46.323 28.0246 45.6289 27.8479C41.6203 26.8217 37.095 27.5792 33.1279 29.8872C34.0541 30.3119 34.9445 30.6596 35.782 30.9284C38.8644 29.6785 42.1108 29.4455 44.946 30.2536C45.6043 30.4416 46.2929 30.0845 46.5004 29.4342H46.5022Z" fill="url(#paint10_linear_432_751)"/>
<path d="M46.0552 11.4614L41.9492 11.8193L42.3084 15.9103L46.4145 15.5524L46.0552 11.4614Z" fill="url(#paint11_linear_432_751)"/>
<path d="M45.6414 32.7179L45.2607 34.8687L47.4194 35.2479L47.8 33.0971L45.6414 32.7179Z" fill="url(#paint12_linear_432_751)"/>
<path d="M35.6515 8.02519C35.7339 7.51932 35.3891 7.04266 34.8814 6.96054C34.3736 6.87843 33.8952 7.22195 33.8128 7.72783C33.7304 8.23371 34.0752 8.71037 34.5829 8.79248C35.0906 8.8746 35.569 8.53107 35.6515 8.02519Z" fill="url(#paint13_linear_432_751)"/>
<path d="M14.0113 11.0906C14.726 11.0906 15.3054 10.5133 15.3054 9.80128C15.3054 9.08921 14.726 8.51196 14.0113 8.51196C13.2966 8.51196 12.7173 9.08921 12.7173 9.80128C12.7173 10.5133 13.2966 11.0906 14.0113 11.0906Z" fill="url(#paint14_linear_432_751)"/>
<path d="M22.0099 0.671312L20.8413 2.68799L22.8654 3.85232L24.034 1.83564L22.0099 0.671312Z" fill="#32FFB4"/>
<path d="M40.8491 3.68443L40.3579 5.51074L42.1909 6.0001L42.6821 4.17379L40.8491 3.68443Z" fill="#32FFB4"/>
<path d="M51.3064 29.3269C52.118 29.3269 52.7759 28.6714 52.7759 27.8628C52.7759 27.0542 52.118 26.3987 51.3064 26.3987C50.4948 26.3987 49.8369 27.0542 49.8369 27.8628C49.8369 28.6714 50.4948 29.3269 51.3064 29.3269Z" fill="#32FFB4"/>
<path d="M76.5541 17.9209C77.9236 18.5355 78.9818 19.4132 79.725 20.5541C80.4683 21.6949 80.8418 23.0368 80.8418 24.578C80.8418 26.1192 80.4701 27.4555 79.725 28.5869C78.9799 29.7183 77.9236 30.5904 76.5541 31.205C75.1827 31.8196 73.5679 32.1259 71.708 32.1259H68.1258V37.4805H62.312V17H71.7099C73.5698 17 75.1846 17.3064 76.5559 17.9209H76.5541ZM74.0565 26.7864C74.6639 26.2695 74.9676 25.5328 74.9676 24.578C74.9676 23.6232 74.6639 22.8808 74.0565 22.3546C73.4491 21.8283 72.5493 21.5652 71.3552 21.5652H68.1258V27.5626H71.3552C72.5493 27.5626 73.4491 27.3051 74.0565 26.7864Z" fill="#00CF91"/>
<path d="M96.9589 33.5017H88.2666L86.6518 37.4805H80.7192L89.7927 17H95.5196L104.623 37.4805H98.5737L96.9589 33.5017ZM95.2556 29.2297L92.6128 22.676L89.97 29.2297H95.2556Z" fill="#00CF91"/>
<path d="M116.428 32.0393H113.257V37.4822H107.443V17.0017H116.841C118.701 17.0017 120.316 17.3081 121.687 17.9226C123.057 18.5372 124.115 19.4149 124.858 20.5558C125.602 21.6966 125.975 23.0385 125.975 24.5797C125.975 26.1209 125.628 27.3557 124.932 28.457C124.238 29.5584 123.244 30.423 121.951 31.047L126.386 37.4841H120.161L116.432 32.0412H116.428V32.0393ZM119.188 22.3544C118.58 21.8282 117.681 21.5651 116.487 21.5651H113.257V27.5624H116.487C117.681 27.5624 118.58 27.3049 119.188 26.7862C119.795 26.2694 120.099 25.5326 120.099 24.5778C120.099 23.6231 119.795 22.8807 119.188 22.3544Z" fill="#00CF91"/>
<path d="M134.43 21.5934H128.116V17H146.529V21.5934H140.244V37.4805H134.43V21.5934Z" fill="#00CF91"/>
<path d="M150.187 17H156V37.4805H150.187V17Z" fill="#00CF91"/>
<defs>
<linearGradient id="paint0_linear_432_751" x1="28.3064" y1="41.9344" x2="10.5059" y2="7.62772" gradientUnits="userSpaceOnUse">
<stop stop-color="#00CF91"/>
<stop offset="1" stop-color="#32FFB4"/>
</linearGradient>
<linearGradient id="paint1_linear_432_751" x1="20.3571" y1="45.5112" x2="15.5222" y2="34.2516" gradientUnits="userSpaceOnUse">
<stop stop-color="#1E2C91"/>
<stop offset="1" stop-color="#5868E9"/>
</linearGradient>
<linearGradient id="paint2_linear_432_751" x1="28.5647" y1="41.9852" x2="23.7298" y2="30.7274" gradientUnits="userSpaceOnUse">
<stop stop-color="#1E2C91"/>
<stop offset="1" stop-color="#5868E9"/>
</linearGradient>
<linearGradient id="paint3_linear_432_751" x1="22.6814" y1="83.6324" x2="29.2493" y2="29.3383" gradientUnits="userSpaceOnUse">
<stop stop-color="#0B073F"/>
<stop offset="1" stop-color="#0B073F" stop-opacity="0"/>
</linearGradient>
<linearGradient id="paint4_linear_432_751" x1="35.9127" y1="50.4701" x2="29.5346" y2="19.9231" gradientUnits="userSpaceOnUse">
<stop stop-color="#00CF91"/>
<stop offset="1" stop-color="#32FFB4"/>
</linearGradient>
<linearGradient id="paint5_linear_432_751" x1="24.2054" y1="-23.2015" x2="31.6761" y2="32.6465" gradientUnits="userSpaceOnUse">
<stop stop-color="#0B073F"/>
<stop offset="1" stop-color="#0B073F" stop-opacity="0"/>
</linearGradient>
<linearGradient id="paint6_linear_432_751" x1="24.6256" y1="23.4059" x2="29.8968" y2="5.47985" gradientUnits="userSpaceOnUse">
<stop stop-color="#1E2C91" stop-opacity="0"/>
<stop offset="1" stop-color="#5868E9"/>
</linearGradient>
<linearGradient id="paint7_linear_432_751" x1="22.7642" y1="20.6045" x2="21.0899" y2="8.15146" gradientUnits="userSpaceOnUse">
<stop stop-color="#32FFB4" stop-opacity="0"/>
<stop offset="1" stop-color="#32FFB4"/>
</linearGradient>
<linearGradient id="paint8_linear_432_751" x1="29.4196" y1="24.7371" x2="35.3087" y2="13.345" gradientUnits="userSpaceOnUse">
<stop stop-color="#32FFB4" stop-opacity="0"/>
<stop offset="1" stop-color="#32FFB4"/>
</linearGradient>
<linearGradient id="paint9_linear_432_751" x1="32.3281" y1="26.5134" x2="46.6324" y2="22.0028" gradientUnits="userSpaceOnUse">
<stop stop-color="#32FFB4" stop-opacity="0"/>
<stop offset="1" stop-color="#32FFB4"/>
</linearGradient>
<linearGradient id="paint10_linear_432_751" x1="33.526" y1="32.0824" x2="43.5073" y2="28.3748" gradientUnits="userSpaceOnUse">
<stop stop-color="#1E2C91" stop-opacity="0"/>
<stop offset="1" stop-color="#5868E9"/>
</linearGradient>
<linearGradient id="paint11_linear_432_751" x1="47.4516" y1="40.3078" x2="42.7332" y2="1.60142" gradientUnits="userSpaceOnUse">
<stop stop-color="#1E2C91"/>
<stop offset="1" stop-color="#5868E9"/>
</linearGradient>
<linearGradient id="paint12_linear_432_751" x1="47.2549" y1="39.8956" x2="42.5354" y2="1.19069" gradientUnits="userSpaceOnUse">
<stop stop-color="#1E2C91"/>
<stop offset="1" stop-color="#5868E9"/>
</linearGradient>
<linearGradient id="paint13_linear_432_751" x1="38.907" y1="41.8496" x2="34.1911" y2="3.16392" gradientUnits="userSpaceOnUse">
<stop stop-color="#1E2C91"/>
<stop offset="1" stop-color="#5868E9"/>
</linearGradient>
<linearGradient id="paint14_linear_432_751" x1="18.3174" y1="44.8563" x2="13.5989" y2="6.14988" gradientUnits="userSpaceOnUse">
<stop stop-color="#1E2C91"/>
<stop offset="1" stop-color="#5868E9"/>
</linearGradient>
</defs>
</svg>
